<svg aria-label="E-com.ai logotype" height="24" role="img" width="auto" xmlns="http://www.w3.org/2000/svg" version="1.0" viewBox="0 0 337.5 67.5" href="/"><path fill="white" d="M32.774 9.731V20.42H17.758v8.125h14.235v10.703H17.758v8.375h15.016v10.703H5.118V9.731ZM58.28 32.794v9.672H39.86v-9.672ZM100.559 26.028c-1.243-1.719-2.852-3.035-4.828-3.953a14.583 14.583 0 0 0-6.25-1.39c-3.743 0-6.836 1.273-9.282 3.812-2.449 2.531-3.672 5.75-3.672 9.656 0 3.867 1.211 7.04 3.641 9.516 2.426 2.468 5.594 3.703 9.5 3.703 2.063 0 4.047-.453 5.953-1.36a14.563 14.563 0 0 0 4.938-3.796v15.14c-2.23.688-4.227 1.235-5.985 1.64-1.761.415-3.48.626-5.156.626-6.793 0-12.836-2.352-18.125-7.063-5.281-4.707-7.922-10.863-7.922-18.468 0-4.688 1.16-9.004 3.485-12.954 2.32-3.957 5.476-7.062 9.468-9.312 4-2.258 8.235-3.39 12.703-3.39 3.614 0 7.457.82 11.532 2.452ZM159.67 33.122c0 5.156-1.164 9.789-3.484 13.89-2.324 4.106-5.547 7.29-9.672 9.547-4.125 2.25-8.574 3.375-13.344 3.375-5.281 0-10.008-1.148-14.172-3.437-4.168-2.301-7.39-5.473-9.672-9.516-2.28-4.039-3.422-8.469-3.422-13.281 0-4.426 1.04-8.55 3.125-12.375 2.083-3.82 5.27-6.977 9.563-9.469 4.3-2.488 9.031-3.734 14.187-3.734 4.727 0 9.165 1.086 13.313 3.25 4.145 2.168 7.441 5.18 9.89 9.031 2.458 3.844 3.688 8.086 3.688 12.719Zm-26.89 14.562c3.914 0 7.18-1.414 9.796-4.25 2.625-2.832 3.938-6.25 3.938-10.25 0-3.351-1.356-6.328-4.063-8.922-2.71-2.601-5.953-3.906-9.734-3.906-3.563 0-6.71 1.262-9.438 3.781-2.73 2.512-4.136 5.528-4.218 9.047 0 4.168 1.328 7.625 3.984 10.375 2.664 2.75 5.91 4.125 9.734 4.125ZM183.317 9.731l9.86 25.969 10.437-25.969h12.562l7.36 48.594h-12.641l-3.547-27.969h-.125L195.55 58.325h-5.016L179.38 30.356h-.125l-4.062 27.969h-12.578l8.25-48.594Zm0 0"></path><path fill="#88c0ff" d="M243.37 52.075c0 2.105-.765 3.89-2.297 5.36-1.523 1.456-3.265 2.187-5.234 2.187-2.062 0-3.84-.73-5.328-2.188-1.48-1.468-2.219-3.254-2.219-5.359 0-2.02.727-3.781 2.188-5.281 1.457-1.508 3.242-2.266 5.36-2.266 2.1 0 3.882.746 5.343 2.234 1.457 1.48 2.187 3.25 2.187 5.313Zm0 0"></path><path fill="white" d="m279.093 9.731 18.297 48.594h-13.469l-3.156-8.438H263.36l-3.344 8.438h-13.422l18.703-48.594Zm-12.25 30.485h10.5l-5.156-15.47h-.125ZM313.956 9.731v48.594h-12.641V9.731Zm0 0"></path></svg>